<?xml version="1.0" encoding="UTF-8"?>
<!DOCTYPE svg PUBLIC "-//W3C//DTD SVG 1.1//EN" "http://www.w3.org/Graphics/SVG/1.1/DTD/svg11.dtd">
<!-- Creator: CorelDRAW -->
<svg xmlns="http://www.w3.org/2000/svg" xml:space="preserve" width="2048px" height="2048px" style="shape-rendering:geometricPrecision; text-rendering:geometricPrecision; image-rendering:optimizeQuality; fill-rule:evenodd; clip-rule:evenodd"
viewBox="0 0 2048 2048"
 xmlns:xlink="http://www.w3.org/1999/xlink">
 <defs>
  <style type="text/css">
   <![CDATA[
    .fil2 {fill:none}
    .fil5 {fill:#073E57}
    .fil3 {fill:#0C4B68}
    .fil4 {fill:#408E0F}
    .fil1 {fill:#BDBDBD}
    .fil0 {fill:#E0E0E0}
    .fil9 {fill:#212121;fill-rule:nonzero}
    .fil8 {fill:#37474F;fill-rule:nonzero}
    .fil6 {fill:#6D4C41;fill-rule:nonzero}
    .fil7 {fill:#A1887F;fill-rule:nonzero}
   ]]>
  </style>
   <clipPath id="id0">
    <path d="M1024 0c565.539,0 1024,458.461 1024,1024 0,565.539 -458.461,1024 -1024,1024 -565.539,0 -1024,-458.461 -1024,-1024 0,-565.539 458.461,-1024 1024,-1024z"/>
   </clipPath>
 </defs>
 <g id="Layer_x0020_1">
  <metadata id="CorelCorpID_0Corel-Layer"/>
  <path class="fil0" d="M1024 0c565.539,0 1024,458.461 1024,1024 0,565.539 -458.461,1024 -1024,1024 -565.539,0 -1024,-458.461 -1024,-1024 0,-565.539 458.461,-1024 1024,-1024z"/>
  <g style="clip-path:url(#id0)">
   <g id="_341216704">
    <g>
     <polygon id="_3333057841" class="fil1" points="1387.5,743.375 2523.39,1879.26 2523.36,1883.39 2523.27,1887.51 2523.12,1891.61 2522.91,1895.7 2522.65,1899.77 2522.32,1903.82 2521.94,1907.86 2521.51,1911.89 2521.01,1915.89 2520.46,1919.88 2519.86,1923.85 2519.2,1927.8 2518.48,1931.73 2517.71,1935.64 2516.89,1939.54 2516.01,1943.41 2515.08,1947.26 2514.09,1951.1 2513.06,1954.91 2511.97,1958.69 2510.83,1962.46 2509.64,1966.21 2508.39,1969.93 2507.1,1973.62 2505.76,1977.3 2504.37,1980.95 2502.93,1984.57 2501.44,1988.18 2499.9,1991.75 2498.31,1995.3 2496.68,1998.82 2495,2002.32 1359.12,866.438 1360.8,862.941 1362.43,859.418 1364.02,855.869 1365.55,852.294 1367.05,848.692 1368.49,845.068 1369.88,841.417 1371.22,837.742 1372.51,834.044 1373.76,830.324 1374.95,826.58 1376.09,822.812 1377.17,819.024 1378.21,815.213 1379.2,811.381 1380.13,807.529 1381,803.656 1381.83,799.762 1382.6,795.849 1383.32,791.917 1383.98,787.966 1384.58,783.996 1385.13,780.009 1385.62,776.004 1386.06,771.981 1386.44,767.942 1386.77,763.886 1387.03,759.814 1387.24,755.727 1387.39,751.623 1387.48,747.506 "/>
     <polygon id="_333305520" class="fil1" points="1359.12,866.438 2495,2002.32 2493.91,2003.58 2492.84,2004.85 2491.79,2006.14 2490.76,2007.45 2489.75,2008.77 2488.75,2010.1 2487.77,2011.45 2486.8,2012.81 2485.84,2014.18 2484.89,2015.56 2483.95,2016.95 2483.01,2018.35 2482.08,2019.76 2481.16,2021.17 2480.24,2022.59 2479.32,2024.01 2478.4,2025.44 2477.48,2026.87 2476.56,2028.3 2475.64,2029.73 2474.71,2031.17 2473.77,2032.6 2472.82,2034.03 2471.87,2035.46 2470.9,2036.88 2469.92,2038.31 2468.93,2039.72 2467.93,2041.13 2466.9,2042.54 2465.86,2043.93 2464.81,2045.32 2463.73,2046.7 1327.85,910.815 1328.93,909.438 1329.98,908.05 1331.02,906.654 1332.05,905.251 1333.05,903.84 1334.04,902.423 1335.02,901.002 1335.99,899.577 1336.94,898.148 1337.89,896.716 1338.82,895.283 1339.75,893.85 1340.68,892.416 1341.6,890.984 1342.52,889.554 1343.44,888.127 1344.36,886.705 1345.28,885.287 1346.2,883.874 1347.13,882.468 1348.07,881.07 1349.01,879.68 1349.96,878.299 1350.92,876.929 1351.89,875.57 1352.87,874.222 1353.87,872.887 1354.88,871.566 1355.91,870.261 1356.96,868.97 1358.03,867.695 "/>
     <polygon id="_333305640" class="fil1" points="1494.73,929.78 2630.61,2065.66 2632.34,2067.61 2633.98,2069.63 2635.52,2071.72 2636.97,2073.88 2638.3,2076.1 2639.53,2078.39 2640.64,2080.74 2641.64,2083.15 2642.52,2085.61 2643.28,2088.12 2643.9,2090.68 2644.4,2093.29 2644.75,2095.94 2644.97,2098.64 2645.05,2101.37 1509.16,965.485 1509.09,962.754 1508.87,960.061 1508.52,957.409 1508.02,954.8 1507.4,952.239 1506.64,949.726 1505.76,947.265 1504.76,944.859 1503.65,942.511 1502.42,940.222 1501.08,937.997 1499.64,935.837 1498.1,933.746 1496.46,931.725 "/>
     <polygon id="_333306408" class="fil1" points="1509.16,965.485 2645.05,2101.37 2645.01,2106.82 2644.89,2112.45 2644.7,2118.23 2644.44,2124.16 2644.11,2130.23 2643.72,2136.42 2643.28,2142.73 2642.78,2149.14 2642.23,2155.64 2641.64,2162.23 2641.01,2168.88 2640.34,2175.6 2639.63,2182.38 2638.9,2189.19 2638.14,2196.03 2637.36,2202.89 2636.56,2209.76 2635.75,2216.62 2634.93,2223.48 2634.11,2230.31 2633.28,2237.11 2632.46,2243.86 2631.65,2250.55 2630.84,2257.18 2630.05,2263.74 2629.28,2270.2 2628.54,2276.57 2627.82,2282.83 2627.13,2288.98 2626.48,2294.99 2625.86,2300.86 2625.29,2306.58 1489.41,1170.7 1489.98,1164.98 1490.59,1159.11 1491.25,1153.09 1491.94,1146.95 1492.66,1140.69 1493.4,1134.32 1494.17,1127.86 1494.96,1121.3 1495.77,1114.67 1496.58,1107.97 1497.4,1101.22 1498.23,1094.43 1499.05,1087.6 1499.87,1080.74 1500.68,1073.88 1501.48,1067.01 1502.26,1060.15 1503.02,1053.3 1503.75,1046.49 1504.45,1039.72 1505.13,1033 1505.76,1026.34 1506.35,1019.76 1506.9,1013.25 1507.4,1006.84 1507.84,1000.54 1508.23,994.347 1508.55,988.281 1508.82,982.352 1509.01,976.568 1509.12,970.942 "/>
     <polygon id="_333306600" class="fil1" points="1489.41,1170.7 2625.29,2306.58 2614.8,2414.66 1478.92,1278.78 "/>
     <polygon id="_333306648" class="fil1" points="1478.92,1278.78 2614.8,2414.66 2614.64,2416.09 2614.46,2417.51 2614.25,2418.92 2614.01,2420.32 2613.74,2421.72 2613.45,2423.1 2613.12,2424.47 2612.77,2425.83 2612.39,2427.18 2611.99,2428.52 2611.55,2429.85 2611.1,2431.16 2610.61,2432.46 2610.1,2433.75 2609.56,2435.02 2609,2436.28 2608.41,2437.52 2607.8,2438.75 2607.16,2439.96 2606.5,2441.15 2605.82,2442.33 2605.11,2443.49 2604.38,2444.63 2603.62,2445.75 2602.84,2446.85 2602.04,2447.93 2601.22,2449 2600.37,2450.04 2599.5,2451.06 2598.61,2452.06 2597.7,2453.04 2596.77,2453.99 1460.88,1318.11 1461.82,1317.15 1462.73,1316.18 1463.62,1315.18 1464.49,1314.16 1465.33,1313.11 1466.16,1312.05 1466.96,1310.97 1467.74,1309.87 1468.5,1308.74 1469.23,1307.6 1469.94,1306.44 1470.62,1305.27 1471.28,1304.08 1471.92,1302.86 1472.53,1301.64 1473.12,1300.4 1473.68,1299.14 1474.22,1297.87 1474.73,1296.58 1475.21,1295.28 1475.67,1293.97 1476.11,1292.64 1476.51,1291.3 1476.89,1289.95 1477.24,1288.59 1477.56,1287.22 1477.86,1285.83 1478.13,1284.44 1478.37,1283.04 1478.58,1281.62 1478.76,1280.2 "/>
     <polygon id="_333306072" class="fil1" points="1460.88,1318.11 2596.77,2453.99 2595.81,2454.93 2594.82,2455.85 2593.82,2456.74 2592.81,2457.61 2591.77,2458.45 2590.71,2459.27 2589.63,2460.07 2588.54,2460.84 2587.42,2461.58 2586.29,2462.29 2585.14,2462.98 2583.98,2463.64 2582.79,2464.28 2581.59,2464.88 2580.37,2465.46 2579.14,2466 2577.89,2466.52 2576.62,2467.01 2575.34,2467.46 2574.04,2467.89 2572.72,2468.28 2571.39,2468.64 2570.05,2468.97 2568.69,2469.27 2567.31,2469.53 2565.93,2469.76 2564.52,2469.96 2563.11,2470.12 2561.68,2470.25 2560.24,2470.34 2558.78,2470.39 2557.31,2470.41 1421.43,1334.53 1422.9,1334.51 1424.36,1334.45 1425.8,1334.36 1427.23,1334.24 1428.64,1334.08 1430.05,1333.88 1431.43,1333.65 1432.81,1333.39 1434.17,1333.09 1435.51,1332.76 1436.84,1332.4 1438.16,1332.01 1439.45,1331.58 1440.74,1331.12 1442,1330.64 1443.26,1330.12 1444.49,1329.57 1445.71,1329 1446.91,1328.39 1448.09,1327.76 1449.26,1327.1 1450.41,1326.41 1451.54,1325.7 1452.66,1324.95 1453.75,1324.18 1454.83,1323.39 1455.88,1322.57 1456.92,1321.73 1457.94,1320.86 1458.94,1319.97 1459.92,1319.05 "/>
     <polygon id="_333306720" class="fil1" points="1421.43,1334.53 2557.31,2470.41 2477.55,2470.41 1341.67,1334.53 "/>
     <polygon id="_333306744" class="fil1" points="1341.67,1334.53 2477.55,2470.41 2450.09,2470.41 1314.21,1334.53 "/>
     <polygon id="_333306168" class="fil1" points="691.621,807.517 1827.5,1943.4 1694.93,1943.4 559.053,807.517 "/>
     <polygon id="_333307200" class="fil1" points="1145.29,1334.53 2281.17,2470.41 2253.72,2470.41 1117.84,1334.53 "/>
     <polygon id="_333307080" class="fil1" points="559.053,807.517 1694.93,1943.4 1692.87,1943.3 1690.86,1942.99 1688.92,1942.49 1687.07,1941.81 1685.3,1940.96 1683.63,1939.95 1682.08,1938.78 1680.64,1937.48 544.758,801.596 546.194,802.901 547.751,804.064 549.417,805.077 551.184,805.928 553.042,806.608 554.979,807.106 556.986,807.413 "/>
     <polygon id="_333306912" class="fil1" points="948.918,1334.53 2084.8,2470.41 2057.34,2470.41 921.463,1334.53 "/>
     <polygon id="_333307416" class="fil1" points="921.463,1334.53 2057.34,2470.41 1985.53,2470.41 849.648,1334.53 "/>
     <polygon id="_333307272" class="fil1" points="849.648,1334.53 1985.53,2470.41 1999.36,2549.75 863.48,1413.87 "/>
     <polygon id="_333307368" class="fil1" points="1441.24,1419.79 2577.13,2555.67 2578.43,2557.11 2579.59,2558.67 2580.61,2560.33 2581.46,2562.1 2582.14,2563.96 2582.64,2565.89 2582.94,2567.9 2583.05,2569.97 1447.17,1434.09 1447.06,1432.02 1446.75,1430.01 1446.26,1428.07 1445.58,1426.22 1444.73,1424.45 1443.71,1422.78 1442.55,1421.23 "/>
     <polygon id="_333307392" class="fil1" points="716.767,772.705 1852.65,1908.59 1853.61,1909.57 1854.5,1910.61 1855.31,1911.72 1856.06,1912.88 1856.72,1914.09 720.84,778.208 720.175,776.996 719.432,775.836 718.614,774.732 717.725,773.688 "/>
     <polygon id="_333306864" class="fil1" points="720.84,778.208 1856.72,1914.09 1898.87,1982.07 762.993,846.184 "/>
     <polygon id="_333306960" class="fil1" points="763.274,846.2 1899.16,1982.08 1899.47,1982.45 1899.82,1983.13 1900.19,1984.12 1900.59,1985.39 1901.02,1986.93 1901.46,1988.7 1901.93,1990.68 1902.41,1992.86 1902.9,1995.21 1903.4,1997.72 1903.91,2000.35 1904.43,2003.09 1904.94,2005.92 1905.46,2008.81 1905.98,2011.74 1906.48,2014.69 1906.99,2017.65 1907.48,2020.57 1907.95,2023.46 1908.41,2026.28 1908.86,2029.01 1909.28,2031.63 1909.67,2034.12 1910.04,2036.46 1910.38,2038.62 1910.69,2040.58 1910.97,2042.33 1911.2,2043.84 1911.4,2045.08 1911.56,2046.04 1911.67,2046.7 775.785,910.815 775.675,910.159 775.521,909.198 775.323,907.953 775.086,906.446 774.811,904.7 774.503,902.735 774.161,900.574 773.792,898.237 773.395,895.748 772.974,893.127 772.532,890.396 772.072,887.577 771.595,884.692 771.105,881.763 770.604,878.811 770.095,875.858 769.581,872.925 769.062,870.034 768.545,867.209 768.03,864.467 767.52,861.835 767.017,859.332 766.524,856.979 766.045,854.799 765.582,852.813 765.136,851.044 764.711,849.512 764.31,848.24 763.935,847.25 763.588,846.563 "/>
     <polygon id="_333307032" class="fil1" points="1314.21,1334.53 2450.09,2470.41 2281.17,2470.41 1145.29,1334.53 "/>
     <polygon id="_333307992" class="fil1" points="1117.84,1334.53 2253.72,2470.41 2084.8,2470.41 948.918,1334.53 "/>
     <polygon id="_333308112" class="fil1" points="1259.19,1457.79 2395.07,2593.67 2393.81,2592.88 2391.19,2592.17 2387.31,2591.54 2382.25,2590.99 2376.09,2590.5 2368.92,2590.08 2360.84,2589.73 2351.92,2589.43 2342.24,2589.19 2331.91,2589 2320.99,2588.86 2309.58,2588.76 2297.76,2588.7 2285.63,2588.68 2273.26,2588.69 2260.73,2588.73 2248.15,2588.79 2235.59,2588.88 2223.13,2588.98 2210.87,2589.1 2198.9,2589.22 2187.28,2589.35 2176.12,2589.49 2165.5,2589.62 2155.5,2589.75 2146.21,2589.86 2137.71,2589.97 2130.09,2590.06 2123.45,2590.12 2117.85,2590.17 2113.4,2590.18 977.516,1454.3 981.972,1454.29 987.567,1454.24 994.214,1454.17 1001.83,1454.09 1010.32,1453.98 1019.61,1453.86 1029.61,1453.74 1040.24,1453.6 1051.4,1453.47 1063.01,1453.34 1074.99,1453.21 1087.25,1453.1 1099.71,1452.99 1112.27,1452.91 1124.85,1452.85 1137.37,1452.81 1149.75,1452.8 1161.88,1452.82 1173.7,1452.88 1185.11,1452.98 1196.02,1453.12 1206.36,1453.31 1216.03,1453.55 1224.96,1453.85 1233.04,1454.2 1240.21,1454.62 1246.36,1455.11 1251.43,1455.66 1255.31,1456.29 1257.93,1457 "/>
     <polygon id="_333307632" class="fil1" points="1310.94,1584.02 2446.82,2719.9 2444.93,2719.87 2443.05,2719.8 2441.18,2719.68 2439.32,2719.52 2437.47,2719.31 2435.64,2719.05 2433.83,2718.75 2432.03,2718.41 2430.24,2718.02 2428.47,2717.59 2426.72,2717.11 2424.99,2716.6 2423.28,2716.04 2421.58,2715.44 2419.9,2714.8 2418.24,2714.13 2416.61,2713.41 2414.99,2712.66 2413.4,2711.86 2411.83,2711.03 2410.28,2710.17 2408.75,2709.27 2407.25,2708.33 2405.77,2707.36 2404.32,2706.35 2402.89,2705.31 2401.49,2704.23 2400.12,2703.13 2398.77,2701.99 2397.45,2700.82 2396.16,2699.62 1260.28,1563.74 1261.57,1564.94 1262.89,1566.11 1264.24,1567.24 1265.61,1568.35 1267.01,1569.43 1268.44,1570.47 1269.89,1571.47 1271.37,1572.45 1272.87,1573.38 1274.4,1574.29 1275.94,1575.15 1277.52,1575.98 1279.11,1576.77 1280.73,1577.53 1282.36,1578.24 1284.02,1578.92 1285.7,1579.56 1287.39,1580.16 1289.11,1580.71 1290.84,1581.23 1292.59,1581.7 1294.36,1582.14 1296.15,1582.52 1297.95,1582.87 1299.76,1583.17 1301.59,1583.42 1303.44,1583.64 1305.29,1583.8 1307.16,1583.92 1309.05,1583.99 "/>
     <polygon id="_333308136" class="fil1" points="1384.37,1510.58 2520.26,2646.47 2520.23,2648.36 2520.16,2650.24 2520.04,2652.12 2519.88,2653.97 2519.67,2655.82 2519.41,2657.65 2519.11,2659.46 2518.76,2661.26 2518.38,2663.05 2517.94,2664.82 2517.47,2666.57 2516.95,2668.3 2516.4,2670.02 2515.8,2671.71 2515.16,2673.39 2514.49,2675.05 2513.77,2676.68 2513.01,2678.3 2512.22,2679.89 2511.39,2681.47 2510.53,2683.02 2509.62,2684.54 2508.69,2686.04 2507.71,2687.52 2506.71,2688.97 2505.67,2690.4 2504.59,2691.8 2503.49,2693.17 2502.35,2694.52 2501.18,2695.84 2499.98,2697.13 2498.75,2698.39 1362.87,1562.51 1364.1,1561.25 1365.3,1559.96 1366.47,1558.64 1367.61,1557.29 1368.71,1555.92 1369.79,1554.52 1370.83,1553.09 1371.83,1551.64 1372.81,1550.16 1373.74,1548.66 1374.65,1547.13 1375.51,1545.58 1376.34,1544.01 1377.13,1542.42 1377.89,1540.8 1378.6,1539.17 1379.28,1537.51 1379.92,1535.83 1380.52,1534.13 1381.07,1532.42 1381.59,1530.69 1382.06,1528.93 1382.49,1527.17 1382.88,1525.38 1383.23,1523.58 1383.53,1521.77 1383.78,1519.94 1384,1518.09 1384.16,1516.23 1384.28,1514.36 1384.35,1512.48 "/>
     <polygon id="_333308304" class="fil1" points="979.945,1456.43 2115.83,2592.31 2116.42,2592.86 2117,2593.41 2117.58,2593.98 2118.16,2594.54 982.278,1458.66 981.704,1458.09 981.124,1457.53 980.538,1456.98 "/>
     <polygon id="_333307968" class="fil1" points="982.278,1458.66 2118.16,2594.54 2119.39,2595.8 2120.59,2597.09 2121.76,2598.41 2122.9,2599.76 2124,2601.13 2125.08,2602.53 2126.12,2603.96 2127.13,2605.41 2128.1,2606.89 2129.04,2608.39 2129.94,2609.92 2130.8,2611.47 2131.63,2613.04 2132.43,2614.63 2133.18,2616.25 2133.9,2617.89 2134.57,2619.54 2135.21,2621.22 2135.81,2622.92 2136.37,2624.63 2136.88,2626.37 2137.36,2628.12 2137.79,2629.88 2138.17,2631.67 2138.52,2633.47 2138.82,2635.28 2139.08,2637.11 2139.29,2638.96 2139.45,2640.82 2139.57,2642.69 2139.64,2644.57 2139.67,2646.47 1003.79,1510.58 1003.76,1508.69 1003.69,1506.81 1003.57,1504.93 1003.41,1503.08 1003.19,1501.23 1002.94,1499.4 1002.64,1497.59 1002.29,1495.79 1001.91,1494 1001.47,1492.23 1001,1490.48 1000.48,1488.75 999.927,1487.03 999.329,1485.34 998.691,1483.66 998.015,1482 997.299,1480.37 996.544,1478.75 995.752,1477.16 994.922,1475.58 994.057,1474.03 993.154,1472.51 992.217,1471.01 991.244,1469.53 990.237,1468.08 989.196,1466.65 988.123,1465.25 987.017,1463.88 985.879,1462.53 984.709,1461.21 983.508,1459.92 "/>
     <polygon id="_333308736" class="fil1" points="883.192,1454.3 2019.07,2590.18 1982.62,2590.18 846.742,1454.3 "/>
     <polygon id="_333308616" class="fil1" points="846.742,1454.3 1982.62,2590.18 1980.81,2590.12 1979.03,2589.91 1977.29,2589.53 1975.61,2589.01 1973.98,2588.35 1972.42,2587.55 1970.94,2586.62 1969.54,2585.57 833.663,1449.69 835.06,1450.74 836.541,1451.67 838.1,1452.47 839.727,1453.13 841.413,1453.65 843.149,1454.02 844.929,1454.24 "/>
     <polygon id="_333308448" class="fil1" points="930.355,1584.02 2066.24,2719.9 2064.34,2719.87 2062.46,2719.8 2060.59,2719.68 2058.73,2719.52 2056.88,2719.31 2055.05,2719.05 2053.24,2718.75 2051.44,2718.41 2049.65,2718.02 2047.89,2717.59 2046.14,2717.11 2044.4,2716.6 2042.69,2716.04 2040.99,2715.44 2039.31,2714.8 2037.65,2714.13 2036.02,2713.41 2034.4,2712.66 2032.81,2711.86 2031.24,2711.03 2029.69,2710.17 2028.16,2709.27 2026.66,2708.33 2025.18,2707.36 2023.73,2706.35 2022.3,2705.31 2020.9,2704.23 2019.53,2703.13 2018.18,2701.99 882.301,1566.11 883.647,1567.24 885.021,1568.35 886.422,1569.43 887.848,1570.47 889.3,1571.47 890.777,1572.45 892.28,1573.38 893.806,1574.29 895.355,1575.15 896.927,1575.98 898.521,1576.77 900.137,1577.53 901.774,1578.24 903.432,1578.92 905.109,1579.56 906.805,1580.16 908.52,1580.71 910.254,1581.23 912.005,1581.7 913.774,1582.14 915.557,1582.52 917.358,1582.87 919.174,1583.17 921.003,1583.42 922.848,1583.64 924.706,1583.8 926.577,1583.92 928.461,1583.99 "/>
     <polygon id="_333308952" class="fil1" points="1003.79,1510.58 2139.67,2646.47 2139.64,2648.36 2139.57,2650.24 2139.45,2652.12 2139.29,2653.97 2139.08,2655.82 2138.82,2657.65 2138.52,2659.46 2138.17,2661.26 2137.79,2663.05 2137.36,2664.82 2136.88,2666.57 2136.37,2668.3 2135.81,2670.02 2135.21,2671.71 2134.57,2673.39 2133.9,2675.05 2133.18,2676.68 2132.43,2678.3 2131.63,2679.89 2130.8,2681.47 2129.94,2683.02 2129.04,2684.54 2128.1,2686.04 2127.12,2687.52 2126.12,2688.97 2125.08,2690.4 2124,2691.8 2122.9,2693.17 2121.76,2694.52 2120.59,2695.84 2119.39,2697.13 2118.16,2698.39 982.276,1562.51 983.507,1561.25 984.708,1559.96 985.878,1558.64 987.016,1557.29 988.123,1555.92 989.196,1554.52 990.237,1553.09 991.243,1551.64 992.217,1550.16 993.154,1548.66 994.057,1547.13 994.922,1545.58 995.752,1544.01 996.544,1542.42 997.299,1540.8 998.015,1539.17 998.691,1537.51 999.329,1535.83 999.927,1534.13 1000.48,1532.42 1001,1530.69 1001.47,1528.93 1001.91,1527.17 1002.29,1525.38 1002.64,1523.58 1002.94,1521.77 1003.19,1519.94 1003.41,1518.09 1003.57,1516.23 1003.69,1514.36 1003.76,1512.48 "/>
     <polygon id="_333308784" class="fil1" points="982.276,1562.51 2118.16,2698.39 2116.9,2699.62 2115.61,2700.82 2114.29,2701.99 2112.94,2703.13 2111.57,2704.23 2110.17,2705.31 2108.74,2706.35 2107.29,2707.36 2105.81,2708.33 2104.31,2709.27 2102.79,2710.17 2101.24,2711.03 2099.66,2711.86 2098.07,2712.66 2096.45,2713.41 2094.82,2714.13 2093.16,2714.8 2091.48,2715.44 2089.79,2716.04 2088.07,2716.6 2086.34,2717.11 2084.59,2717.59 2082.82,2718.02 2081.03,2718.41 2079.23,2718.75 2077.42,2719.05 2075.59,2719.31 2073.74,2719.52 2071.89,2719.68 2070.01,2719.8 2068.13,2719.87 2066.24,2719.9 930.355,1584.02 932.25,1583.99 934.133,1583.92 936.004,1583.8 937.862,1583.64 939.706,1583.42 941.537,1583.17 943.352,1582.87 945.152,1582.52 946.937,1582.14 948.705,1581.7 950.455,1581.23 952.189,1580.71 953.904,1580.16 955.601,1579.56 957.278,1578.92 958.935,1578.24 960.572,1577.53 962.188,1576.77 963.783,1575.98 965.355,1575.15 966.904,1574.29 968.429,1573.38 969.931,1572.45 971.409,1571.47 972.862,1570.47 974.289,1569.43 975.688,1568.35 977.062,1567.24 978.408,1566.11 979.726,1564.94 981.016,1563.74 "/>
     <polygon id="_333308856" class="fil1" points="1447.17,1434.09 2583.05,2569.97 2582.94,2572.04 2582.64,2574.04 2582.14,2575.98 2581.46,2577.84 2580.61,2579.6 2579.59,2581.27 2578.43,2582.83 2577.13,2584.26 2575.69,2585.57 2574.13,2586.73 2572.47,2587.74 2570.7,2588.59 2568.84,2589.27 2566.91,2589.77 2564.9,2590.08 2562.83,2590.18 1426.95,1454.3 1429.02,1454.2 1431.02,1453.89 1432.96,1453.39 1434.82,1452.71 1436.59,1451.86 1438.25,1450.85 1439.81,1449.68 1441.24,1448.38 1442.55,1446.94 1443.71,1445.39 1444.73,1443.72 1445.58,1441.95 1446.26,1440.1 1446.75,1438.16 1447.06,1436.15 "/>
     <polygon id="_333308880" class="fil1" points="1362.87,1562.51 2498.75,2698.39 2497.49,2699.62 2496.2,2700.82 2494.88,2701.99 2493.53,2703.13 2492.16,2704.23 2490.76,2705.31 2489.33,2706.35 2487.88,2707.36 2486.4,2708.33 2484.9,2709.27 2483.37,2710.17 2481.83,2711.03 2480.25,2711.86 2478.66,2712.66 2477.04,2713.41 2475.41,2714.13 2473.75,2714.8 2472.07,2715.44 2470.37,2716.04 2468.66,2716.6 2466.93,2717.11 2465.18,2717.59 2463.41,2718.02 2461.62,2718.41 2459.82,2718.75 2458.01,2719.05 2456.18,2719.31 2454.33,2719.52 2452.47,2719.68 2450.6,2719.8 2448.72,2719.87 2446.82,2719.9 1310.94,1584.02 1312.84,1583.99 1314.72,1583.92 1316.59,1583.8 1318.45,1583.64 1320.3,1583.42 1322.12,1583.17 1323.94,1582.87 1325.74,1582.52 1327.53,1582.14 1329.29,1581.7 1331.04,1581.23 1332.78,1580.71 1334.49,1580.16 1336.19,1579.56 1337.87,1578.92 1339.52,1578.24 1341.16,1577.53 1342.78,1576.77 1344.37,1575.98 1345.94,1575.15 1347.49,1574.29 1349.02,1573.38 1350.52,1572.45 1352,1571.47 1353.45,1570.47 1354.88,1569.43 1356.28,1568.35 1357.65,1567.24 1359,1566.11 1360.32,1564.94 1361.61,1563.74 "/>
     <polygon id="_333308928" class="fil1" points="1426.95,1454.3 2562.83,2590.18 2493.99,2590.18 1358.11,1454.3 "/>
     <polygon id="_333308424" class="fil1" points="1362.29,1458.09 2498.17,2593.98 2498.75,2594.54 1362.87,1458.66 "/>
     <polygon id="_333308520" class="fil1" points="1362.87,1458.66 2498.75,2594.54 2499.98,2595.8 2501.18,2597.09 2502.35,2598.41 2503.49,2599.76 2504.59,2601.13 2505.67,2602.53 2506.71,2603.96 2507.71,2605.41 2508.69,2606.89 2509.62,2608.39 2510.53,2609.92 2511.39,2611.47 2512.22,2613.04 2513.01,2614.63 2513.77,2616.25 2514.49,2617.89 2515.16,2619.54 2515.8,2621.22 2516.4,2622.92 2516.95,2624.63 2517.47,2626.37 2517.94,2628.12 2518.38,2629.88 2518.76,2631.67 2519.11,2633.47 2519.41,2635.28 2519.67,2637.11 2519.88,2638.96 2520.04,2640.82 2520.16,2642.69 2520.23,2644.57 2520.26,2646.47 1384.37,1510.58 1384.35,1508.69 1384.28,1506.81 1384.16,1504.93 1384,1503.08 1383.78,1501.23 1383.53,1499.4 1383.23,1497.59 1382.88,1495.79 1382.49,1494 1382.06,1492.23 1381.59,1490.48 1381.07,1488.75 1380.52,1487.03 1379.92,1485.34 1379.28,1483.66 1378.6,1482 1377.89,1480.37 1377.13,1478.75 1376.34,1477.16 1375.51,1475.58 1374.65,1474.03 1373.74,1472.51 1372.81,1471.01 1371.83,1469.53 1370.83,1468.08 1369.79,1466.65 1368.71,1465.25 1367.61,1463.88 1366.47,1462.53 1365.3,1461.21 1364.1,1459.92 "/>
     <polygon id="_333309528" class="fil1" points="1319.45,558.065 2455.33,1693.95 2464.14,1704.69 2472.41,1715.9 2480.12,1727.55 2487.27,1739.62 2493.83,1752.09 2499.78,1764.94 2505.11,1778.15 2509.8,1791.71 2513.82,1805.6 2517.17,1819.8 2519.81,1834.28 2521.74,1849.03 2522.94,1864.03 2523.39,1879.26 1387.5,743.375 1387.06,728.144 1385.86,713.145 1383.93,698.395 1381.28,683.913 1377.94,669.72 1373.92,655.832 1369.23,642.271 1363.9,629.056 1357.95,616.203 1351.39,603.733 1344.24,591.665 1336.53,580.019 1328.25,568.812 "/>
    </g>
    <path id="_341216656" class="fil1" d="M1387.5 743.375c0,44.1485 -10.213,85.9075 -28.3866,123.064 -11.7331,13.3099 -19.6477,29.7355 -31.2721,44.3764l13.8201 0 109.707 0c15.2339,0 30.6992,6.44056 41.5406,17.0953 9.93308,9.76064 16.2508,22.9122 16.2508,37.5744 0,57.2847 -13.911,145.036 -19.754,205.213l-10.4929 108.079c-1.48228,15.2728 -7.96772,29.2677 -18.0331,39.3331 -10.1386,10.1398 -23.7189,16.4162 -39.4536,16.4162l-79.7646 0 -27.4559 0 -168.918 0 -27.4559 0 -168.918 0 -27.4559 0 -71.8146 0 13.8319 79.343 563.471 0c11.1638,0 20.2146,9.05198 20.2146,20.2169 0,11.1638 -9.05079,20.2146 -20.2146,20.2146l-68.8453 0c1.65,1.38307 3.23977,2.83937 4.76103,4.36063 13.2886,13.2898 21.5079,31.6477 21.5079,51.9225 0,20.2748 -8.2193,38.6339 -21.5091,51.9225 -13.2874,13.2874 -31.6477,21.5091 -51.9225,21.5091 -20.2736,0 -38.6327,-8.22166 -51.9213,-21.5091 -13.2898,-13.2886 -21.5091,-31.6477 -21.5091,-51.9225 0,-20.2748 8.2193,-38.6327 21.5091,-51.9225 9.79961,-9.79961 -240.358,-4.36063 -281.505,-4.36063 1.65,1.38307 3.23977,2.83937 4.76103,4.36063 13.2886,13.2898 21.5079,31.6477 21.5079,51.9225 0,20.2748 -8.2193,38.6339 -21.5091,51.9225 -13.2874,13.2874 -31.6477,21.5091 -51.9213,21.5091 -20.2748,0 -38.6339,-8.22166 -51.9225,-21.5091 -13.2886,-13.2886 -21.5091,-31.6477 -21.5091,-51.9225 0,-20.2748 8.22048,-38.6327 21.5091,-51.9225 1.52126,-1.52126 3.10984,-2.97756 4.75985,-4.36063l-36.45 0c-9.7441,0.122835 -18.4181,-6.83386 -20.1461,-16.7433l-99.9556 -573.569 -35.0197 -56.4721 -132.568 0c-11.1638,0 -20.2158,-9.05079 -20.2158,-20.2158 0,-11.1638 9.05198,-20.2146 20.2158,-20.2146l143.73 0c7.89331,0 14.7284,4.52481 18.0579,11.1213l42.1524 67.976c2.80512,-1.75276 11.8701,59.3386 12.7925,64.6312l120.217 0c-0.920079,-1.15276 -1.81417,-2.31969 -2.71299,-3.48898 -50.5465,-65.7721 -68.4792,-151.676 -50.0563,-233.176 50.504,-117.256 105.108,-198.298 247.14,-209.303 164.334,-12.6154 296.459,114.912 297.131,278.528z"/>
   </g>
  </g>
  <path class="fil2" d="M1024 0c565.539,0 1024,458.461 1024,1024 0,565.539 -458.461,1024 -1024,1024 -565.539,0 -1024,-458.461 -1024,-1024 0,-565.539 458.461,-1024 1024,-1024z"/>
  <ellipse class="fil3" cx="1111.93" cy="739.575" rx="275.575" ry="275.575"/>
  <path class="fil4" d="M980.05 497.552c33.2717,-18.1677 70.6985,-29.6776 110.493,-32.7319 6.23859,-0.435827 12.535,-0.660237 18.8835,-0.660237 40.7977,0 79.2792,9.40631 113.847,25.6736l-9.63544 1.42913 -26.1862 -3.913 -18.613 12.3791 -13.128 14.5488 -47.6882 4.40197 -19.6984 -3.25512 -13.441 21.1878 -39.3059 2.25473 -24.6803 -7.14567 -21.8634 12.0354 -47.5193 6.57166 -38.0587 11.0658 -0.0850394 0c21.2516,-25.7941 47.263,-47.5158 76.6796,-63.8422zm140.695 -6.80197l27.3319 -15.0378 17.5288 10.148 -25.4209 19.2709 -24.1855 2.48977 -10.8898 -7.1504 15.6354 -9.72048zm-80.8512 2.17087l12.0354 5.05867 15.8091 -5.05867 8.55001 14.9528 -36.3945 9.55276 -17.5288 -10.2992c0,0 17.1,-10.9748 17.5288,-14.2063z"/>
  <path class="fil5" d="M1323.54 565.05c39.9626,48.4678 63.9662,110.586 63.9662,178.31 0,44.1485 -10.213,85.9075 -28.3855,123.064 -21.2917,24.1536 -47.7615,43.9618 -78.1123,57.5209l1.3441 -15.6449c39.4737,-38.5335 26.8689,-53.8819 63.1619,-79.7646l16.2532 -52.8886 -43.3193 -15.7406c-15.1677,-11.9185 -17.9445,-19.663 -36.6768,-18.3992 -8.36221,-0.657875 -16.7256,-1.32047 -25.0878,-1.97953 -7.07481,0.204331 -14.1425,0.411024 -21.2173,0.615355 -5.69056,2.79449 -11.387,5.58426 -17.0776,8.37875 -11.9976,-9.26103 -9.98859,-9.96024 -24.9815,-11.4721 -0.698032,-5.58308 -1.39961,-11.1638 -2.09646,-16.7457 -4.42087,0.968505 -8.8441,1.94291 -13.2638,2.91142 -1.99961,3.38268 -3.99922,6.76064 -5.99764,10.1433 -9.28583,-21.0484 -10.5862,-15.5197 8.17678,-29.0528 6.47363,1.63937 12.9461,3.27756 19.4197,4.91693 3.21378,-0.597638 6.42756,-1.19528 9.64253,-1.79291 2.05984,-36.2233 28.7776,-57.4359 55.5048,-77.8382 7.34764,-0.401575 14.6906,-0.796064 22.0382,-1.19764 -0.00590552,-3.63898 -0.0106299,-7.27323 -0.0153543,-10.9122 -22.3843,-15.6744 -29.0705,-18.7063 -45.6178,-40.5319 -37.2118,6.92008 -45.4028,-17.7721 -44.954,24.1264 -8.27599,-0.0555119 -16.5473,-0.106299 -24.8232,-0.161811 -1.52244,-4.79882 -3.0437,-9.5941 -4.56615,-14.3929 23.6185,-10.1315 17.6268,-7.83071 18.8032,-35.0103 6.53741,1.35945 13.0784,2.72362 19.6158,4.08426 0.531496,3.75591 1.06063,7.513 1.59213,11.2689 8.79449,1.88386 15.8339,3.29173 24.7831,4.19764 3.42402,-2.68229 6.84213,-5.36811 10.2661,-8.05158 -9.12638,-12.4382 -20.5807,-20.0221 -36.841,-26.3977 -0.434646,-3.24331 -0.876379,-6.4878 -1.31221,-9.73229 34.4103,0.315355 41.4496,8.24764 57.6591,38.7177 11.0906,6.80788 22.1847,13.6146 33.2752,20.4213l7.78111 0.944883 7.04528 -18.0213 14.0173 -3.89292z"/>
  <path class="fil5" d="M1086.01 1013.61c-140.307,-14.7673 -249.652,-133.44 -249.652,-277.658 0,-21.2457 2.38465,-41.9327 6.87993,-61.8189 4.04646,-9.39213 8.65749,-18.4831 13.7858,-27.2303l17.5477 -4.02284 -17.6244 13.8862 13.8319 9.11812 27.4205 0 40.7859 -7.29331c8.56064,13.9051 17.1284,27.8126 25.6902,41.7166 0,51.9922 3.81496,44.224 35.0067,86.5264 1.97953,0 3.95315,0 5.93268,0 0,-5.59607 0,-11.1862 0,-16.7823 22.7575,15.7559 80.0091,34.8638 88.819,60.6969 -5.44725,11.3457 -10.8886,22.6914 -16.3358,34.0382 5.92678,10.9866 11.8476,21.9732 17.7732,32.961 0,0 11.2417,37.9843 11.2417,39.5008 0,1.43858 -11.2417,45.4323 -11.2417,45.4323l2.58662 29.6362c-4.13504,0.493701 -8.27953,0.938977 -12.4476,1.29331z"/>
  <path class="fil4" d="M1324.66 564.382c39.2634,47.6221 62.8477,108.653 62.8477,175.193 0,43.3772 -10.0347,84.4052 -27.8894,120.911 -20.9197,23.7319 -46.9252,43.1941 -76.7457,56.5158l1.32047 -15.3709c38.7839,-37.8603 26.3988,-52.9394 62.0563,-78.3697l15.9697 -51.9638 -42.5622 -15.4654c-14.902,-11.7106 -17.6303,-19.3193 -36.0343,-18.0768 -8.21575,-0.647245 -16.4339,-1.29921 -24.6496,-1.94528 -6.95079,0.199606 -13.8957,0.403937 -20.8465,0.603544 -5.59134,2.74607 -11.1886,5.48741 -16.7788,8.23347 -11.7886,-9.09922 -9.81379,-9.78662 -24.5445,-11.2724 -0.686221,-5.48504 -1.37599,-10.9689 -2.06103,-16.4528 -4.34292,0.951969 -8.68938,1.90984 -13.0311,2.86181 -1.96417,3.32244 -3.92835,6.64134 -5.89252,9.96379 -9.12284,-20.6788 -10.4008,-15.2469 8.03386,-28.5437 6.36024,1.61102 12.7193,3.22087 19.0795,4.83189 3.15827,-0.588189 6.31654,-1.1752 9.47481,-1.76339 2.02323,-35.589 28.2744,-56.4308 54.5339,-76.4753 7.2189,-0.394488 14.4331,-0.783071 21.652,-1.17756 -0.00472441,-3.5752 -0.00944883,-7.14567 -0.0141732,-10.7209 -21.9933,-15.4004 -28.5614,-18.3791 -44.8193,-39.8244 -36.5622,6.79961 -44.6091,-17.4602 -44.1685,23.7047 -8.1319,-0.0543308 -16.2579,-0.103937 -24.3898,-0.158268 -1.49528,-4.71615 -2.98937,-9.42639 -4.48583,-14.1413 23.2063,-9.95434 17.3185,-7.69371 18.4736,-34.3985 6.42284,1.33583 12.8504,2.67638 19.2732,4.01339 0.522048,3.68977 1.04291,7.38071 1.56378,11.0717 8.64213,1.85079 15.5575,3.23386 24.3496,4.12441 3.36496,-2.63504 6.72284,-5.27481 10.0878,-7.91103 -8.96694,-12.2209 -20.2217,-19.6713 -36.1973,-25.9358 -0.427559,-3.18662 -0.861024,-6.37441 -1.28858,-9.56221 33.8079,0.309449 40.7244,8.10355 56.6504,38.041 10.8969,6.68859 21.7973,13.376 32.6929,20.0634l7.64528 0.928347 6.92127 -17.7059 13.7728 -3.82559z"/>
  <path class="fil4" d="M1082.75 1013.61c-138.477,-14.5748 -246.397,-131.7 -246.397,-274.038 0,-20.9681 2.35394,-41.3847 6.79016,-61.0123 3.99331,-9.2693 8.5441,-18.2421 13.6063,-26.8748l17.3185 -3.97087 -17.3941 13.7055 13.6512 8.99883 27.0638 0 40.2532 -7.19764c8.44961,13.7232 16.9051,27.45 25.3547,41.1721 0,51.3142 3.76536,43.6477 34.5508,85.3973 1.95354,0 3.90118,0 5.85473,0 0,-5.52284 0,-11.0398 0,-16.5626 22.461,15.5504 78.9662,34.4091 87.6603,59.9056 -5.3752,11.198 -10.7457,22.3961 -16.1221,33.5941 5.85,10.8437 11.6929,21.6874 17.5417,32.5311 0,0 11.0953,37.4894 11.0953,38.9859 0,1.41969 -11.0953,44.8394 -11.0953,44.8394l2.55236 29.2512c-4.07953,0.486615 -8.17087,0.925985 -12.2847,1.27559z"/>
  <path class="fil6" d="M559.053 767.072c-11.165,0 -20.2158,9.05079 -20.2158,20.2158 0,11.1638 9.05079,20.2146 20.2158,20.2146l132.568 0 35.0197 56.4721 99.9721 573.492 19.8992 -3.39567 -19.9146 3.47244c1.72677,9.90946 10.3996,16.8662 20.1449,16.7433l580.208 0c11.165,0 20.2158,-9.05079 20.2158,-20.2158 0,-11.1638 -9.05079,-20.2158 -20.2158,-20.2158l-563.471 0 -13.8307 -79.3418 571.783 0c15.7347,0 29.315,-6.27874 39.4536,-16.4173 10.0654,-10.0654 16.5508,-24.0603 18.0331,-39.3331l29.9433 -308.421c0.20315,-2.09291 0.302362,-3.71457 0.302362,-4.87087 0,-14.6622 -6.31654,-27.8138 -16.2496,-37.5744 -9.40276,-9.24095 -22.2532,-15.4276 -35.9882,-16.7599 -2.2878,-0.220866 -4.1504,-0.335433 -5.55119,-0.335433l-675.588 0 -9.8256 -56.3599c-0.33189,-2.86299 -1.28268,-5.70119 -2.90197,-8.3126l-0.0649607 0.0413386 -42.1536 -67.976c-3.32953,-6.59646 -10.1646,-11.1213 -18.0579,-11.1213l-143.73 0z"/>
  <path class="fil7" d="M948.918 1170.68l168.918 0 0 -85.4764 -168.918 0 0 85.4764zm365.292 0l0 -85.4764 -168.918 0 0 85.4764 168.918 0zm27.4559 -259.883l0 144.202 158.471 0 -4.06063 30.2044 -154.41 0 0 85.4764 148.011 0 -3.93544 30.2044 -144.076 0 0 133.625 -27.4559 0 0 -133.625 -168.918 0 0 133.625 -27.4559 0 0 -133.625 -168.918 0 0 133.625 -27.4559 0 0 -133.625 -105.463 0 -6.21969 -30.2044 111.683 0 0 -85.4764 -115.724 0 -6.41812 -30.2044 122.143 0 0 -144.202 27.4559 0 0 144.202 168.918 0 0 -144.202 27.4559 0 0 144.202 168.918 0 0 -144.202 27.4559 0z"/>
  <path class="fil8" d="M930.355 1437.14c20.2748,0 38.6327,8.2193 51.9225,21.5091 13.2886,13.2898 21.5079,31.6477 21.5079,51.9225 0,20.2748 -8.2193,38.6327 -21.5091,51.9225 -13.2874,13.2874 -31.6465,21.5079 -51.9213,21.5079 -20.2748,0 -38.6339,-8.22048 -51.9225,-21.5079 -13.2898,-13.2898 -21.5091,-31.6477 -21.5091,-51.9225 0,-20.2748 8.2193,-38.6327 21.5091,-51.9225 13.2874,-13.2898 31.6465,-21.5091 51.9225,-21.5091z"/>
  <path class="fil8" d="M1310.94 1437.14c20.2748,0 38.6327,8.2193 51.9213,21.5091 13.2886,13.2898 21.5091,31.6477 21.5091,51.9225 0,20.2748 -8.22048,38.6327 -21.5091,51.9225 -13.2886,13.2874 -31.6465,21.5079 -51.9213,21.5079 -20.2748,0 -38.6339,-8.22048 -51.9225,-21.5079 -13.2898,-13.2898 -21.5103,-31.6477 -21.5103,-51.9225 0,-20.2748 8.22048,-38.6327 21.5103,-51.9225 13.2874,-13.2898 31.6465,-21.5091 51.9225,-21.5091z"/>
  <path class="fil9" d="M1310.94 1475.77c9.60828,0 18.3083,3.89528 24.6059,10.1929 6.29646,6.29764 10.1929,14.9976 10.1929,24.6059 0,9.60709 -3.89646,18.3071 -10.1941,24.6047 -6.29646,6.29646 -14.9965,10.1929 -24.6047,10.1929 -9.60709,0 -18.3071,-3.89646 -24.6047,-10.1929 -6.29764,-6.29764 -10.1929,-14.9976 -10.1929,-24.6047 0,-9.60828 3.89528,-18.3083 10.1929,-24.6059 6.29646,-6.29764 14.9965,-10.1929 24.6047,-10.1929z"/>
  <path class="fil9" d="M930.355 1475.77c9.60828,0 18.3083,3.89528 24.6047,10.1929 6.29764,6.29764 10.1929,14.9976 10.1929,24.6059 0,9.60709 -3.89528,18.3071 -10.1929,24.6047 -6.29646,6.29646 -14.9965,10.1929 -24.6047,10.1929 -9.60828,0 -18.3071,-3.89646 -24.6047,-10.1929 -6.29764,-6.29764 -10.1941,-14.9976 -10.1941,-24.6047 0,-9.60828 3.89646,-18.3083 10.1941,-24.6059 6.29646,-6.29764 14.9965,-10.1929 24.6047,-10.1929z"/>
 </g>
</svg>
