<?xml version="1.0" encoding="UTF-8"?>
<!DOCTYPE svg PUBLIC "-//W3C//DTD SVG 1.1//EN" "http://www.w3.org/Graphics/SVG/1.1/DTD/svg11.dtd">
<!-- Creator: CorelDRAW -->
<svg xmlns="http://www.w3.org/2000/svg" xml:space="preserve" width="2048px" height="2048px" style="shape-rendering:geometricPrecision; text-rendering:geometricPrecision; image-rendering:optimizeQuality; fill-rule:evenodd; clip-rule:evenodd"
viewBox="0 0 2048 2048"
 xmlns:xlink="http://www.w3.org/1999/xlink">
 <defs>
  <style type="text/css">
   <![CDATA[
    .fil2 {fill:none}
    .fil1 {fill:#1E88E5}
    .fil6 {fill:#4D4D4D}
    .fil0 {fill:#64B5F6}
    .fil4 {fill:#BE9B75}
    .fil7 {fill:#4D4D4D;fill-rule:nonzero}
    .fil5 {fill:#8F6C46;fill-rule:nonzero}
    .fil9 {fill:#B71C1C;fill-rule:nonzero}
    .fil8 {fill:#C62828;fill-rule:nonzero}
    .fil3 {fill:#FFFFFE;fill-rule:nonzero}
   ]]>
  </style>
   <clipPath id="id0">
    <path d="M1024 0c565.539,0 1024,458.461 1024,1024 0,565.539 -458.461,1024 -1024,1024 -565.539,0 -1024,-458.461 -1024,-1024 0,-565.539 458.461,-1024 1024,-1024z"/>
   </clipPath>
 </defs>
 <g id="Layer_x0020_1">
  <metadata id="CorelCorpID_0Corel-Layer"/>
  <path class="fil0" d="M1024 0c565.539,0 1024,458.461 1024,1024 0,565.539 -458.461,1024 -1024,1024 -565.539,0 -1024,-458.461 -1024,-1024 0,-565.539 458.461,-1024 1024,-1024z"/>
  <g style="clip-path:url(#id0)">
   <g id="_341188144">
    <g>
     <polygon id="_4558082801" class="fil1" points="1566.37,1006.48 2702.25,2142.36 2703.25,2143.48 2704.18,2144.63 2705.04,2145.82 2705.84,2147.05 2706.57,2148.31 2707.24,2149.59 2707.83,2150.9 2708.36,2152.23 2708.83,2153.58 2709.23,2154.95 2709.55,2156.34 2709.82,2157.73 2710.01,2159.14 2710.14,2160.55 2710.21,2161.97 2710.2,2163.39 2710.13,2164.8 2709.99,2166.22 2709.78,2167.62 2709.51,2169.02 2709.16,2170.4 2708.75,2171.77 2708.28,2173.12 2707.73,2174.45 2707.12,2175.76 2706.44,2177.05 2705.69,2178.3 2704.88,2179.53 2703.99,2180.72 2703.04,2181.88 2702.02,2182.99 1566.14,1047.11 1567.16,1045.99 1568.11,1044.84 1569,1043.65 1569.81,1042.42 1570.56,1041.16 1571.24,1039.88 1571.85,1038.57 1572.4,1037.24 1572.87,1035.89 1573.28,1034.52 1573.62,1033.13 1573.9,1031.74 1574.11,1030.33 1574.25,1028.92 1574.32,1027.5 1574.32,1026.09 1574.26,1024.67 1574.13,1023.26 1573.94,1021.85 1573.67,1020.46 1573.34,1019.07 1572.95,1017.7 1572.48,1016.35 1571.95,1015.02 1571.36,1013.71 1570.69,1012.42 1569.96,1011.17 1569.16,1009.94 1568.3,1008.75 1567.37,1007.59 "/>
     <polygon id="_455808784" class="fil1" points="1000.42,724.049 2136.3,1859.93 2134.92,1859.23 2133.54,1858.51 2132.16,1857.78 2130.79,1857.04 2129.41,1856.28 2128.04,1855.51 2126.68,1854.73 2125.31,1853.94 2123.95,1853.13 2122.59,1852.31 2121.23,1851.48 2119.88,1850.63 2118.53,1849.78 2117.18,1848.91 2115.84,1848.03 2114.49,1847.14 978.614,711.259 979.954,712.15 981.298,713.029 982.646,713.897 983.996,714.752 985.351,715.596 986.707,716.428 988.067,717.246 989.429,718.054 990.794,718.848 992.163,719.63 993.533,720.4 994.907,721.156 996.282,721.899 997.66,722.629 999.04,723.345 "/>
     <polygon id="_455809432" class="fil1" points="1354.49,1224.82 2490.38,2360.7 2299.13,2176.96 1163.25,1041.08 "/>
     <polygon id="_455809648" class="fil1" points="1163.25,1041.08 2299.13,2176.96 2107.88,1993.21 972.002,857.33 "/>
     <polygon id="_455810320" class="fil1" points="978.614,711.259 2114.49,1847.14 2111.92,1845.39 2109.36,1843.6 2106.82,1841.77 2104.29,1839.9 2101.77,1837.99 2099.27,1836.05 2096.79,1834.06 2094.32,1832.04 2091.87,1829.98 2089.44,1827.89 2087.03,1825.77 2084.64,1823.61 2082.27,1821.42 2079.93,1819.2 2077.6,1816.95 2075.3,1814.68 2073.02,1812.37 2070.76,1810.04 934.879,674.156 937.135,676.488 939.414,678.793 941.717,681.07 944.044,683.319 946.392,685.538 948.763,687.727 951.152,689.884 953.563,692.008 955.992,694.1 958.441,696.156 960.907,698.178 963.391,700.163 965.891,702.112 968.407,704.021 970.938,705.891 973.483,707.722 976.041,709.511 "/>
     <polygon id="_455810008" class="fil1" points="997.921,531.865 2133.8,1667.75 2135.3,1669.39 2136.79,1671.04 2138.27,1672.72 2139.75,1674.42 2141.22,1676.14 2142.68,1677.87 2144.13,1679.63 2145.58,1681.4 2147.02,1683.19 2148.45,1684.99 2149.87,1686.82 2151.29,1688.66 2152.7,1690.51 2154.09,1692.38 2155.48,1694.27 1019.6,558.387 1018.21,556.5 1016.81,554.63 1015.41,552.774 1013.99,550.934 1012.57,549.111 1011.14,547.304 1009.7,545.516 1008.25,543.745 1006.8,541.991 1005.33,540.256 1003.86,538.538 1002.39,536.841 1000.91,535.163 999.417,533.504 "/>
     <polygon id="_455809768" class="fil1" points="1019.6,558.387 2155.48,1694.27 2157.66,1697.29 2159.82,1700.35 2161.95,1703.44 2164.05,1706.57 2166.13,1709.73 2168.18,1712.92 2170.21,1716.14 2172.2,1719.39 2174.16,1722.67 2176.09,1725.97 2177.99,1729.29 2179.85,1732.64 2181.68,1736.01 2183.47,1739.39 2185.23,1742.8 2186.95,1746.22 2188.64,1749.65 2190.28,1753.1 2191.88,1756.56 2193.45,1760.03 2194.97,1763.51 2196.44,1766.99 2197.88,1770.48 2199.27,1773.98 2200.61,1777.48 2201.91,1780.97 2203.16,1784.47 2204.36,1787.97 2205.51,1791.46 2206.61,1794.95 2207.66,1798.43 2208.66,1801.9 1072.78,666.019 1071.78,662.547 1070.73,659.065 1069.63,655.578 1068.48,652.086 1067.28,648.59 1066.03,645.091 1064.73,641.593 1063.39,638.096 1062,634.601 1060.56,631.111 1059.08,627.625 1057.56,624.147 1056,620.677 1054.4,617.217 1052.76,613.77 1051.07,610.335 1049.35,606.915 1047.59,603.511 1045.8,600.123 1043.97,596.756 1042.11,593.41 1040.21,590.085 1038.28,586.784 1036.32,583.508 1034.32,580.258 1032.3,577.037 1030.25,573.846 1028.17,570.685 1026.07,567.558 1023.94,564.465 1021.78,561.407 "/>
     <polygon id="_455809576" class="fil1" points="1566.14,1047.11 2702.02,2182.99 2532.08,2359.87 2531.01,2360.93 2529.89,2361.93 2528.74,2362.86 2527.54,2363.72 2526.32,2364.52 2525.06,2365.25 2523.78,2365.92 2522.47,2366.51 2521.14,2367.04 2519.79,2367.51 2518.42,2367.91 2517.03,2368.23 2515.64,2368.5 2514.23,2368.69 2512.82,2368.82 2511.4,2368.88 2509.98,2368.88 2508.57,2368.81 2507.15,2368.67 2505.75,2368.46 2504.35,2368.19 2502.97,2367.84 2501.6,2367.43 2500.24,2366.96 2498.91,2366.41 2497.6,2365.8 2496.32,2365.12 2495.06,2364.37 2493.84,2363.56 2492.65,2362.67 2491.49,2361.72 2490.38,2360.7 1354.49,1224.82 1355.61,1225.84 1356.77,1226.79 1357.96,1227.68 1359.18,1228.49 1360.44,1229.24 1361.72,1229.92 1363.03,1230.53 1364.36,1231.07 1365.72,1231.55 1367.09,1231.96 1368.47,1232.3 1369.87,1232.58 1371.27,1232.78 1372.68,1232.93 1374.1,1233 1375.52,1233 1376.93,1232.94 1378.35,1232.81 1379.75,1232.62 1381.15,1232.35 1382.53,1232.02 1383.9,1231.62 1385.26,1231.16 1386.59,1230.63 1387.9,1230.03 1389.18,1229.37 1390.44,1228.64 1391.66,1227.84 1392.85,1226.98 1394.01,1226.05 1395.13,1225.05 1396.2,1223.99 "/>
     <polygon id="_455810080" class="fil1" points="640.052,732.829 1775.93,1868.71 1776.94,1869.77 641.057,733.887 "/>
     <polygon id="_455809816" class="fil1" points="1005.75,1268.43 2141.63,2404.31 2142.41,2405.64 2143.45,2407.36 2144.74,2409.45 2146.28,2411.87 2148.07,2414.6 2150.09,2417.62 2152.35,2420.88 2154.84,2424.36 2157.56,2428.04 2160.51,2431.88 2163.67,2435.86 2167.05,2439.95 2170.64,2444.11 2174.43,2448.33 2178.43,2452.56 2182.62,2456.79 2187.01,2460.98 1051.13,1325.1 1046.74,1320.91 1042.55,1316.68 1038.55,1312.45 1034.75,1308.23 1031.17,1304.07 1027.79,1299.98 1024.63,1296 1021.68,1292.16 1018.96,1288.48 1016.47,1285 1014.21,1281.73 1012.19,1278.72 1010.4,1275.99 1008.86,1273.56 1007.57,1271.48 1006.53,1269.75 "/>
     <polygon id="_455810272" class="fil1" points="1242.1,1294.02 2377.99,2429.91 2377.92,2429.87 1242.04,1293.98 "/>
     <polygon id="_455810128" class="fil1" points="1551.27,1412.79 2687.15,2548.67 2695.83,2557.85 2703.34,2567.24 2709.59,2576.84 2714.45,2586.64 2717.83,2596.63 2719.62,2606.79 2719.7,2617.13 1583.82,1481.25 1583.74,1470.91 1581.95,1460.74 1578.57,1450.76 1573.7,1440.96 1567.46,1431.36 1559.94,1421.97 "/>
     <polygon id="_455809864" class="fil1" points="1583.82,1481.25 2719.7,2617.13 2719.66,2617.12 1583.78,1481.24 "/>
     <polygon id="_455810752" class="fil1" points="1583.78,1481.24 2719.66,2617.12 2719.66,2617.18 1583.78,1481.3 "/>
     <polygon id="_455810896" class="fil1" points="1583.84,1481.3 2719.73,2617.19 2719.7,2617.5 2719.67,2617.81 2719.63,2618.12 2719.6,2618.42 2719.55,2618.73 2719.51,2619.04 2719.46,2619.34 2719.41,2619.64 1583.52,1483.76 1583.58,1483.46 1583.63,1483.15 1583.67,1482.85 1583.72,1482.54 1583.75,1482.23 1583.79,1481.93 1583.82,1481.61 "/>
     <polygon id="_455810608" class="fil1" points="1583.52,1483.76 2719.41,2619.64 2719.27,2620.67 2719.09,2621.82 2718.87,2623.09 2718.6,2624.47 2718.28,2625.96 2717.91,2627.54 2717.48,2629.22 2716.98,2630.98 2716.41,2632.82 2715.77,2634.74 2715.05,2636.72 2714.24,2638.77 2713.35,2640.87 2712.37,2643.02 2711.29,2645.21 2710.12,2647.44 2708.83,2649.7 2707.44,2651.99 2705.93,2654.29 2704.3,2656.6 2702.56,2658.92 2700.68,2661.23 2698.67,2663.54 2696.52,2665.84 2694.24,2668.11 2691.81,2670.36 2689.23,2672.58 2686.49,2674.76 2683.59,2676.89 2680.54,2678.98 2677.31,2681 2673.91,2682.97 1538.03,1547.08 1541.43,1545.12 1544.66,1543.1 1547.71,1541.01 1550.61,1538.88 1553.34,1536.7 1555.93,1534.48 1558.36,1532.23 1560.64,1529.96 1562.79,1527.66 1564.8,1525.35 1566.67,1523.03 1568.42,1520.72 1570.05,1518.41 1571.56,1516.1 1572.95,1513.82 1574.23,1511.56 1575.41,1509.33 1576.49,1507.14 1577.47,1504.99 1578.36,1502.89 1579.16,1500.84 1579.89,1498.86 1580.53,1496.94 1581.1,1495.1 1581.59,1493.33 1582.03,1491.66 1582.4,1490.07 1582.72,1488.59 1582.99,1487.21 1583.21,1485.94 1583.38,1484.79 "/>
     <polygon id="_455810776" class="fil1" points="641.057,733.887 1776.94,1869.77 1778.9,1871.7 1781.72,1874.53 1785.37,1878.26 1789.84,1882.89 1795.08,1888.44 1801.09,1894.9 1807.83,1902.28 1815.28,1910.6 1823.41,1919.84 1832.2,1930.03 1841.62,1941.16 1851.65,1953.25 1862.26,1966.29 1873.43,1980.29 1885.13,1995.27 1897.34,2011.22 1910.03,2028.14 1923.18,2046.05 1936.76,2064.96 1950.75,2084.86 1965.12,2105.76 1979.84,2127.68 1994.9,2150.6 2010.26,2174.55 2025.91,2199.52 2041.81,2225.52 2057.94,2252.56 2074.28,2280.65 2090.79,2309.78 2107.47,2339.96 2124.27,2371.2 2141.18,2403.51 1005.3,1267.63 988.389,1235.32 971.586,1204.08 954.913,1173.89 938.395,1144.76 922.059,1116.68 905.927,1089.64 890.027,1063.64 874.383,1038.67 859.02,1014.72 843.963,991.794 829.237,969.882 814.868,948.978 800.881,929.077 787.301,910.172 774.152,892.26 761.46,875.333 749.251,859.386 737.548,844.412 726.379,830.408 715.766,817.366 705.736,805.281 696.315,794.148 687.526,783.961 679.395,774.713 671.949,766.399 665.209,759.015 659.203,752.553 653.957,747.008 649.493,742.374 645.839,738.648 643.019,735.82 "/>
     <polygon id="_455810680" class="fil1" points="1005.35,1267.61 2141.23,2403.49 2141.63,2404.31 1005.75,1268.43 "/>
     <polygon id="_455811040" class="fil1" points="1092.56,1564.8 2228.45,2700.68 2228.21,2700.68 2227.98,2700.68 2227.75,2700.67 2227.52,2700.66 2227.29,2700.65 2227.06,2700.64 2226.83,2700.62 2226.6,2700.61 1090.72,1564.73 1090.94,1564.74 1091.18,1564.76 1091.4,1564.77 1091.64,1564.78 1091.87,1564.79 1092.1,1564.79 1092.33,1564.8 "/>
     <polygon id="_455810920" class="fil1" points="683.936,1262.53 1819.82,2398.42 1819.82,2461.93 683.936,1326.05 "/>
     <polygon id="_455811280" class="fil1" points="922.235,1503.23 2058.12,2639.11 2058.07,2639.15 922.185,1503.27 "/>
     <polygon id="_455811448" class="fil1" points="736.864,1234.75 1872.75,2370.63 1870.84,2368.89 1868.89,2367.22 1866.9,2365.61 1864.87,2364.08 1862.81,2362.64 1860.72,2361.31 1858.61,2360.09 1856.47,2359 1854.31,2358.04 1852.13,2357.23 1849.94,2356.58 1847.75,2356.11 1845.54,2355.81 1843.34,2355.71 707.456,1219.83 709.661,1219.93 711.865,1220.22 714.062,1220.7 716.249,1221.35 718.425,1222.16 720.584,1223.11 722.724,1224.21 724.841,1225.43 726.93,1226.76 728.991,1228.2 731.018,1229.72 733.008,1231.33 734.958,1233.01 "/>
     <polygon id="_455811376" class="fil1" points="760.737,1264.51 1896.62,2400.39 1896.59,2400.4 760.708,1264.51 "/>
     <polygon id="_455811352" class="fil1" points="707.456,1219.83 1843.34,2355.71 1843.09,2355.71 1842.84,2355.71 1842.59,2355.7 1842.34,2355.69 1842.1,2355.68 1841.85,2355.66 1841.6,2355.65 1841.36,2355.63 705.478,1219.75 705.722,1219.77 705.968,1219.78 706.215,1219.8 706.462,1219.81 706.71,1219.82 706.958,1219.82 707.207,1219.83 "/>
     <polygon id="_455811664" class="fil1" points="705.478,1219.75 1841.36,2355.63 1840.95,2355.66 1840.47,2355.71 1839.91,2355.79 1839.3,2355.91 1838.63,2356.07 1837.91,2356.28 1837.14,2356.54 1836.34,2356.86 1835.5,2357.25 1834.63,2357.71 1833.74,2358.25 1832.83,2358.87 1831.91,2359.59 1830.99,2360.4 1830.07,2361.31 1829.15,2362.33 1828.24,2363.47 1827.35,2364.72 1826.49,2366.11 1825.65,2367.62 1824.85,2369.28 1824.09,2371.08 1823.37,2373.03 1822.7,2375.14 1822.1,2377.41 1821.55,2379.86 1821.07,2382.47 1820.67,2385.27 1820.34,2388.26 1820.11,2391.44 1819.96,2394.83 1819.91,2398.42 684.028,1262.53 684.078,1258.95 684.225,1255.56 684.464,1252.38 684.787,1249.39 685.191,1246.59 685.668,1243.97 686.214,1241.53 686.822,1239.26 687.488,1237.15 688.205,1235.2 688.968,1233.4 689.771,1231.74 690.608,1230.22 691.473,1228.84 692.363,1227.58 693.269,1226.45 694.186,1225.43 695.11,1224.51 696.034,1223.7 696.951,1222.99 697.858,1222.37 698.749,1221.83 699.617,1221.37 700.457,1220.98 701.262,1220.66 702.029,1220.4 702.749,1220.19 703.42,1220.03 704.033,1219.91 704.585,1219.83 705.068,1219.77 "/>
     <polygon id="_455811424" class="fil1" points="684.028,1262.53 1819.91,2398.42 1819.82,2398.42 683.936,1262.53 "/>
     <polygon id="_455811568" class="fil1" points="922.654,1503.71 2058.54,2639.59 2058.5,2639.61 922.622,1503.73 "/>
     <polygon id="_455811736" class="fil1" points="1090.72,1564.73 2226.6,2700.61 2224.76,2700.6 2222.42,2700.57 2219.61,2700.51 2216.35,2700.4 2212.66,2700.24 2208.59,2700.02 2204.16,2699.73 2199.39,2699.35 2194.31,2698.88 2188.96,2698.31 2183.36,2697.62 2177.54,2696.81 2171.52,2695.87 2165.34,2694.79 2159.03,2693.56 2152.61,2692.16 2146.11,2690.59 2139.56,2688.83 2132.99,2686.89 2126.43,2684.74 2119.9,2682.38 2113.44,2679.8 2107.07,2676.99 2100.81,2673.94 2094.71,2670.63 2088.78,2667.06 2083.06,2663.22 2077.57,2659.1 2072.35,2654.68 936.47,1518.8 941.694,1523.21 947.181,1527.34 952.902,1531.18 958.828,1534.75 964.932,1538.05 971.185,1541.11 977.557,1543.92 984.021,1546.5 990.55,1548.86 997.113,1551.01 1003.68,1552.95 1010.23,1554.71 1016.73,1556.27 1023.15,1557.67 1029.46,1558.91 1035.64,1559.99 1041.65,1560.93 1047.48,1561.74 1053.08,1562.42 1058.43,1563 1063.5,1563.47 1068.27,1563.84 1072.71,1564.14 1076.78,1564.36 1080.47,1564.52 1083.73,1564.63 1086.54,1564.69 1088.88,1564.72 "/>
     <polygon id="_455811856" class="fil1" points="683.936,1326.05 1819.82,2461.93 1819.82,2677.31 683.934,1541.43 "/>
     <polygon id="_455811256" class="fil1" points="684.025,1541.43 1819.91,2677.31 1819.79,2679.7 1819.43,2682.02 1818.86,2684.27 1818.07,2686.41 1817.09,2688.46 1815.91,2690.38 1814.57,2692.18 1813.06,2693.84 1811.4,2695.35 1809.6,2696.7 1807.67,2697.87 1805.63,2698.85 1803.48,2699.64 1801.24,2700.21 1798.92,2700.57 1796.53,2700.69 660.651,1564.81 663.041,1564.69 665.362,1564.33 667.602,1563.76 669.749,1562.97 671.793,1561.99 673.72,1560.81 675.519,1559.47 677.18,1557.96 678.688,1556.3 680.033,1554.5 681.205,1552.57 682.189,1550.53 682.974,1548.38 683.551,1546.14 683.905,1543.82 "/>
     <polygon id="_455812072" class="fil1" points="660.651,1564.81 1796.53,2700.69 1782.17,2700.69 646.287,1564.81 "/>
     <polygon id="_455812288" class="fil1" points="646.287,1564.81 1782.17,2700.69 1732.22,2700.69 596.339,1564.81 "/>
     <polygon id="_455812096" class="fil1" points="596.339,1564.81 1732.22,2700.69 1729.83,2700.57 1727.51,2700.21 1725.27,2699.64 1723.12,2698.85 1721.08,2697.87 1719.15,2696.7 1717.35,2695.35 581.47,1559.47 583.27,1560.81 585.198,1561.99 587.241,1562.97 589.388,1563.76 591.628,1564.33 593.95,1564.69 "/>
     <polygon id="_455811904" class="fil1" points="1538.03,1547.08 2673.91,2682.97 2672.13,2683.93 2670.31,2684.87 2668.45,2685.8 2666.53,2686.7 2664.57,2687.59 2662.56,2688.45 2660.5,2689.29 2658.4,2690.1 2656.24,2690.9 2654.04,2691.66 2651.78,2692.41 2649.48,2693.12 2647.12,2693.81 2644.71,2694.47 2642.25,2695.11 2639.73,2695.71 2637.16,2696.28 2634.54,2696.82 2631.86,2697.33 2629.12,2697.81 2626.33,2698.25 2623.48,2698.66 2620.58,2699.03 2617.62,2699.37 2614.59,2699.67 2611.51,2699.93 2608.37,2700.16 2605.17,2700.34 2601.91,2700.49 2598.59,2700.59 2595.2,2700.66 2591.75,2700.68 1455.87,1564.8 1459.32,1564.78 1462.7,1564.71 1466.03,1564.61 1469.29,1564.46 1472.49,1564.28 1475.63,1564.05 1478.71,1563.79 1481.73,1563.49 1484.7,1563.15 1487.6,1562.78 1490.45,1562.37 1493.24,1561.92 1495.98,1561.45 1498.66,1560.94 1501.28,1560.4 1503.85,1559.83 1506.37,1559.22 1508.83,1558.59 1511.24,1557.93 1513.6,1557.24 1515.9,1556.53 1518.16,1555.78 1520.36,1555.01 1522.52,1554.22 1524.62,1553.41 1526.68,1552.57 1528.69,1551.7 1530.65,1550.82 1532.56,1549.91 1534.43,1548.99 1536.25,1548.05 "/>
     <polygon id="_455812360" class="fil1" points="1455.87,1564.8 2591.75,2700.68 2228.45,2700.68 1092.56,1564.8 "/>
    </g>
    <path id="_341187928" class="fil1" d="M1182.81 637.91l382.492 367.492c11.6988,11.2406 12.0685,30.0142 0.83504,41.7071l-169.941 176.878c-11.2358,11.6929 -30.0142,12.0685 -41.7071,0.832678l-191.247 -183.745 -191.245 -183.745 28.4197 -133.28c-7.37599,-3.71575 -14.6669,-8.00906 -21.8079,-12.7902 -27.502,-18.4134 -52.9028,-44.1532 -72.3804,-72.0319 -19.6063,-28.063 -33.3036,-58.4481 -37.2425,-85.9347 -3.09567,-21.5977 -0.214961,-41.5406 10.4102,-57.5079 0.0330709,-0.0519685 0.0661418,-0.102756 0.101575,-0.152362 0.233858,-0.354331 0.501969,-0.689764 0.801969,-1.00276 0.00472441,-0.00472441 0.00826772,-0.00944883 0.0129921,-0.0129921 0.297638,-0.311811 0.618898,-0.591733 0.960237,-0.839764 0.0555119,-0.0437008 0.113386,-0.0850394 0.17126,-0.125197 0.00472441,-0.00354331 0.0106299,-0.00708662 0.0153543,-0.0106299 11.7638,-8.52402 24.8126,-11.5417 38.4981,-10.102 16.9193,1.77874 34.624,10.4634 51.828,23.9256 16.6902,13.0606 33.0532,30.7205 47.8087,50.9221 23.3835,32.015 42.8185,70.6359 53.1768,107.633l110.039 -28.1091zm-177.517 629.722l0.0507874 -0.0259843 0.402756 0.820867c6.95079,11.9587 58.4658,96.1064 131.693,95.6481l0 -0.0897638c0.543308,-0.00354331 1.08189,0.0129921 1.61811,0.0448819 11.152,-0.470079 76.6843,-5.94922 103.043,-70.0075l-0.0673229 -0.0377953c4.6878,-11.3917 17.3421,-17.0988 28.865,-13.3276 21.3248,5.80512 321.466,89.4638 312.919,200.588l-0.0425197 -0.00354331 -0.00354331 0.056693 0.068504 0.00472441c-0.0649607,0.832678 -0.172441,1.65118 -0.320079,2.45551 -1.30394,10.2803 -8.30434,42.7512 -45.4949,63.326 -18.7087,10.3583 -45.0461,17.713 -82.1575,17.713l-363.307 0c-0.622441,0 -1.2378,-0.0248032 -1.84843,-0.0720473 -16.7752,0.0141732 -124.501,-2.20866 -168.062,-61.0205l-0.0318898 0.0248032 -0.387402 -0.499607 -0.0496063 0.0377953 -0.688583 -0.99567c-9.84922,-12.7984 -83.5064,-109.484 -160.76,-237.766l-0.0283465 0.00708662c-0.323622,-0.538583 -0.622441,-1.08425 -0.89882,-1.63701 -5.12481,-8.02796 -28.8284,-43.0477 -52.3536,-43.0477 -0.666142,0 -1.32638,-0.0283465 -1.97835,-0.0838583 -3.95788,0.216142 -21.45,3.39213 -21.45,42.7878l-0.0921261 0 0 63.5174 -0.0011811 215.381 0.090945 0c0,12.9083 -10.4646,23.374 -23.374,23.3752l-14.3646 0 -49.9477 0c-12.9095,0 -23.3752,-10.4669 -23.3752,-23.3752l0 -276.275c-40.2851,-60.2103 -85.3028,-161.547 -102.058,-259.034 -6.57756,-38.2689 -8.89016,-76.1847 -5.03622,-111.227 1.04173,-9.463 2.53229,-18.7158 4.51063,-27.7099 9.83741,-44.7272 31.4941,-83.0587 69.2658,-109.402 21.548,-15.0272 47.9717,-25.8544 79.9926,-31.3607l-0.00590552 -0.0330709c8.25119,-1.41732 16.2343,1.67717 21.424,7.49646 16.2496,15.8693 183.412,183.405 364.24,533.745z"/>
   </g>
  </g>
  <path class="fil2" d="M1024 0c565.539,0 1024,458.461 1024,1024 0,565.539 -458.461,1024 -1024,1024 -565.539,0 -1024,-458.461 -1024,-1024 0,-565.539 458.461,-1024 1024,-1024z"/>
  <path class="fil3" d="M1065.46 731.192c-0.425197,4.06536 2.52402,7.70788 6.58938,8.13308 4.06536,0.426378 7.7067,-2.52402 8.13308,-6.58819 5.43662,-51.7193 -22.2732,-121.899 -60.5835,-174.35 -14.7555,-20.2016 -31.1185,-37.8614 -47.8087,-50.9221 -17.204,-13.4622 -34.9087,-22.1469 -51.828,-23.9256 -13.7575,-1.44567 -26.8725,1.60984 -38.6847,10.2378 -3.2941,2.41654 -4.00394,7.04528 -1.5874,10.3382 2.41654,3.29292 7.04528,4.00394 10.3382,1.5874 8.60906,-6.28819 18.2386,-8.50749 28.3902,-7.44095 13.9925,1.47047 29.152,9.0567 44.2607,20.8807 15.6236,12.2256 31.0276,28.8744 44.9929,47.9953 36.4276,49.8733 62.8406,115.995 57.7878,164.054z"/>
  <path class="fil4" d="M1182.81 637.912l382.493 367.491c11.6988,11.2406 12.0697,30.0142 0.833859,41.7071l-169.94 176.877c-11.2347,11.6941 -30.013,12.0697 -41.7071,0.83504l-191.247 -183.747 -191.247 -183.745 37.3394 -175.108 173.473 -44.3103zm-100.847 86.5808c7.89922,7.58977 8.15079,20.1461 0.561024,28.0465 -7.58977,7.89922 -20.1461,8.15079 -28.0465,0.561024 -7.89922,-7.58977 -8.15079,-20.1473 -0.561024,-28.0465 7.58977,-7.89922 20.1473,-8.15079 28.0465,-0.561024z"/>
  <path class="fil5" d="M1226.82 717.002l-6.8126 7.09016 -14.1803 -13.624 6.8126 -7.09016 14.1803 13.624zm-15.7559 -15.0236c-1.45866,-1.24134 -3.30355,-2.40355 -5.01733,-3.25866 -5.53701,-2.7437 -12.1453,-3.56339 -18.0721,-1.60158l3.04961 9.34725c4.6063,-1.5189 10.1705,0.0200788 13.7941,3.1063l6.24567 -7.59331zm-33.0591 1.9689l7.09016 6.8126 -13.624 14.1803 -7.09016 -6.8126 13.624 -14.1803zm-20.4366 21.2705l7.09016 6.8126 -13.624 14.1803 -7.09016 -6.8126 13.624 -14.1803zm-20.4366 21.2705l7.09134 6.8126 -13.6252 14.1803 -7.09016 -6.8126 13.624 -14.1803zm-20.4366 21.2705l7.09134 6.8126 -13.624 14.1803 -7.09134 -6.8126 13.624 -14.1803zm-20.4354 21.2705l7.09016 6.8126 -13.624 14.1803 -7.09134 -6.8126 13.6252 -14.1803zm-20.4366 21.2705l7.09016 6.8126 -13.624 14.1803 -7.09016 -6.8126 13.624 -14.1803zm-20.4366 21.2705l7.09016 6.8126 -13.624 14.1803 -7.09016 -6.8126 13.624 -14.1803zm-20.1732 24.2587c-2.46024,8.01379 0.0259843,16.7114 5.37874,22.9713l7.4315 -6.43701c-3.15945,-3.70866 -4.85906,-8.93387 -3.39213,-13.7138l-9.41812 -2.82047zm12.7087 30.1784l6.8126 -7.09134 14.1803 13.624 -6.8126 7.09134 -14.1803 -13.624zm21.2705 20.4354l6.8126 -7.09016 14.1803 13.624 -6.8126 7.09134 -14.1803 -13.6252zm21.2705 20.4366l6.8126 -7.09016 14.1803 13.624 -6.8126 7.09016 -14.1803 -13.624zm21.2705 20.4366l6.8126 -7.09016 14.1803 13.624 -6.8126 7.09016 -14.1803 -13.624zm21.2705 20.4366l6.8126 -7.09134 14.1803 13.6252 -6.8126 7.09016 -14.1803 -13.624zm21.2705 20.4366l6.8126 -7.09134 14.1803 13.624 -6.8126 7.09134 -14.1803 -13.624zm21.2705 20.4354l6.8126 -7.09016 14.1803 13.624 -6.81142 7.09016 -14.1815 -13.624zm21.2717 20.4366l6.81142 -7.09016 14.1815 13.624 -6.8126 7.09016 -14.1803 -13.624zm21.2705 20.4366l6.8126 -7.09134 14.1803 13.6252 -6.8126 7.09016 -14.1803 -13.624zm21.2705 20.4366l6.8126 -7.09134 14.1803 13.624 -6.8126 7.09134 -14.1803 -13.624zm21.2705 20.4354l6.8126 -7.09016 14.1803 13.624 -6.8126 7.09134 -14.1803 -13.6252zm21.2705 20.4366l6.8126 -7.09016 14.1803 13.624 -6.8126 7.09016 -14.1803 -13.624zm21.2705 20.4366l6.8126 -7.09016 14.1803 13.624 -6.8126 7.09016 -14.1803 -13.624zm21.2705 20.4366l6.8126 -7.09134 14.1803 13.6252 -6.8126 7.09016 -14.1803 -13.624zm21.2705 20.4366l6.8126 -7.09134 14.1803 13.624 -6.8126 7.09134 -14.1803 -13.624zm22.7823 20.6103c0.068504,0.0649607 0.89882,0.47126 1.04646,0.543308 7.18938,3.52914 15.8599,3.6567 22.728,-0.714567l-5.30788 -8.27599c-4.1563,2.64095 -9.54095,2.10827 -13.7291,-0.167717l0 -0.0011811 -4.73741 8.61615zm31.7646 -7.67008l-7.09016 -6.8126 13.624 -14.1803 7.09016 6.8126 -13.624 14.1803zm20.4366 -21.2705l-7.09016 -6.8126 13.624 -14.1803 7.09016 6.8126 -13.624 14.1803zm20.4366 -21.2705l-7.09134 -6.8126 13.6252 -14.1803 7.09016 6.8126 -13.624 14.1803zm20.4366 -21.2705l-7.09134 -6.8126 13.624 -14.1803 7.09134 6.8126 -13.624 14.1803zm20.4354 -21.2705l-7.09016 -6.8126 13.624 -14.1803 7.09134 6.81142 -13.6252 14.1815zm20.4366 -21.2717l-7.09016 -6.8126 13.624 -14.1803 7.09016 6.8126 -13.624 14.1803zm20.4366 -21.2705l-7.09016 -6.8126 12.5421 -13.0547 0.0507874 -0.0531496 0.0590552 -0.0625985 0.0496063 -0.0531496 0.0496063 -0.0543308 0.0484252 -0.0531496 0.0472441 -0.0543308 0.0555119 -0.0625985 0.0472441 -0.0555119 0.046063 -0.0531496 0.0531496 -0.0649607 0.046063 -0.0555119 0.0448819 -0.0543308 0.0437008 -0.0543308 0.0437008 -0.0555119 -0.0106299 0.0129921 7.78701 6.00355 -0.022441 0.0283465 -0.0921261 0.116929 -0.0944883 0.11811 -0.0933072 0.115748 -0.0956694 0.114567 -0.0874016 0.105118 -0.0968505 0.114567 -0.0980316 0.113386 -0.0897638 0.102756 -0.0992127 0.112205 -0.100394 0.111024 -0.101575 0.112205 -0.101575 0.108662 -0.0944883 0.100394 -0.102756 0.108662 -12.5433 13.0547zm18.2634 -26.4579c0.459449,-7.27205 -2.72008,-14.5571 -7.91103,-19.5803l-0.10748 -0.105118 -1.42205 -1.36536 -6.8126 7.09016 1.42205 1.36654c3.20906,3.08268 5.29843,7.55316 5.01378,12.0532l9.81733 0.540945zm-16.5307 -27.8634l-6.8126 7.09016 -14.1803 -13.624 6.8126 -7.09016 14.1803 13.624zm-21.2705 -20.4366l-6.8126 7.09134 -14.1803 -13.6252 6.8126 -7.09016 14.1803 13.624zm-21.2705 -20.4366l-6.8126 7.09134 -14.1803 -13.624 6.8126 -7.09134 14.1803 13.624zm-21.2705 -20.4354l-6.8126 7.09016 -14.1803 -13.624 6.8126 -7.09016 14.1803 13.624zm-21.2705 -20.4366l-6.8126 7.09016 -14.1803 -13.624 6.8126 -7.09016 14.1803 13.624zm-21.2705 -20.4366l-6.8126 7.09134 -14.1803 -13.6252 6.8126 -7.09016 14.1803 13.624zm-21.2705 -20.4366l-6.8126 7.09134 -14.1803 -13.624 6.8126 -7.09134 14.1803 13.624zm-21.2705 -20.4354l-6.8126 7.09016 -14.1803 -13.624 6.8126 -7.09134 14.1803 13.6252zm-21.2705 -20.4366l-6.8126 7.09016 -14.1803 -13.624 6.8126 -7.09016 14.1803 13.624zm-21.2705 -20.4366l-6.8126 7.09016 -14.1803 -13.624 6.8126 -7.09016 14.1803 13.624zm-21.2705 -20.4366l-6.8126 7.09134 -14.1803 -13.6252 6.81142 -7.09016 14.1815 13.624zm-21.2717 -20.4366l-6.81142 7.09134 -14.1815 -13.624 6.8126 -7.09134 14.1803 13.624zm-21.2705 -20.4354l-6.8126 7.09016 -14.1803 -13.624 6.8126 -7.09134 14.1803 13.6252zm-21.2705 -20.4366l-6.8126 7.09016 -14.1803 -13.624 6.8126 -7.09016 14.1803 13.624z"/>
  <path class="fil6" d="M1091.04 715.046c13.1162,12.6024 13.5331,33.4524 0.93189,46.5685 -12.6024,13.1162 -33.4524,13.5331 -46.5685,0.93189 -13.1162,-12.6024 -13.5331,-33.4524 -0.93189,-46.5685 12.6024,-13.1162 33.4524,-13.5331 46.5685,-0.93189zm-9.0756 9.44646c7.89922,7.58977 8.15079,20.1461 0.561024,28.0465 -7.58977,7.89922 -20.1461,8.15079 -28.0465,0.561024 -7.89922,-7.58977 -8.15079,-20.1473 -0.561024,-28.0465 7.58977,-7.89922 20.1473,-8.15079 28.0465,-0.561024z"/>
  <polygon class="fil7" points="1270.36,1024.66 1395.15,1144.56 1384.93,1155.19 1260.14,1035.3 "/>
  <polygon class="fil7" points="1281.6,1012.97 1406.39,1132.86 1399.57,1139.95 1274.78,1020.06 "/>
  <polygon class="fil7" points="1294.54,999.503 1419.32,1119.4 1412.51,1126.49 1287.72,1006.59 "/>
  <polygon class="fil7" points="1307.47,986.037 1432.26,1105.93 1425.45,1113.02 1300.66,993.127 "/>
  <polygon class="fil7" points="1320.41,972.571 1445.2,1092.47 1438.39,1099.56 1313.6,979.661 "/>
  <polygon class="fil7" points="1335.05,957.333 1459.84,1077.23 1449.62,1087.86 1324.83,967.968 "/>
  <polygon class="fil7" points="1346.29,945.639 1471.08,1065.53 1464.26,1072.62 1339.47,952.73 "/>
  <polygon class="fil7" points="1372.16,918.706 1496.95,1038.6 1490.14,1045.69 1365.35,925.797 "/>
  <polygon class="fil7" points="1360.93,930.4 1485.72,1050.3 1475.5,1060.93 1350.71,941.036 "/>
  <path class="fil3" d="M1073.89 738.866c4.05118,-0.568111 6.87402,-4.31221 6.30709,-8.36339 -0.568111,-4.05118 -4.31221,-6.87402 -8.36339,-6.30591 -27.267,3.90709 -57.1784,-6.60355 -85.0111,-25.239 -25.9559,-17.3788 -49.9819,-41.7461 -68.4508,-68.1815 -18.339,-26.25 -31.1126,-54.3933 -34.7162,-79.5402 -2.60669,-18.1902 -0.37441,-34.6689 8.14371,-47.3894 2.26772,-3.39685 1.35354,-7.99016 -2.04331,-10.2579 -3.39685,-2.26772 -7.99016,-1.35354 -10.2579,2.04331 -10.7079,15.9921 -13.6158,35.9941 -10.5118,57.6615 3.93898,27.4866 17.6362,57.8705 37.2425,85.9335 19.4776,27.8788 44.8784,53.6197 72.3804,72.0319 30.6886,20.5477 64.1327,32.0705 95.2808,27.6071z"/>
  <path class="fil8" d="M641.057 733.887c16.2496,15.8693 183.412,183.405 364.24,533.745l0.0507874 -0.0259843c0.141732,0.271654 0.274016,0.54567 0.402756,0.820867 6.95079,11.9587 58.4658,96.1064 131.693,95.6481l0 -0.0897638c0.543308,-0.00354331 1.08189,0.0129921 1.61811,0.0448819 11.152,-0.470079 76.6843,-5.94922 103.043,-70.0075l21.548 8.85709 -21.6154 -8.89489c4.6878,-11.3917 17.3421,-17.0988 28.865,-13.3276 21.3248,5.80512 321.466,89.4638 312.919,200.588l-0.0425197 -0.00354331 -0.00354331 0.056693 0.068504 0.00472441c-0.0649607,0.832678 -0.172441,1.65118 -0.320079,2.45551 -1.95945,15.4524 -16.7906,81.039 -127.652,81.039l-363.307 0c-0.622441,0 -1.2378,-0.0248032 -1.84843,-0.0720473 -16.7752,0.0141732 -124.501,-2.20866 -168.062,-61.0205l-0.0318898 0.0248032 -0.387402 -0.499607 -0.0496063 0.0377953c-0.238583,-0.328347 -0.468898,-0.660237 -0.688583,-0.99567 -9.84922,-12.7984 -83.5064,-109.484 -160.76,-237.766l0.0661418 -0.0401575 -0.00472441 -0.00708662 -0.0897638 0.0543308c-0.323622,-0.538583 -0.622441,-1.08425 -0.89882,-1.63701 -5.12481,-8.02796 -28.8284,-43.0477 -52.3536,-43.0477 -0.666142,0 -1.32638,-0.0283465 -1.97835,-0.0838583 -3.95788,0.216142 -21.45,3.39213 -21.45,42.7878l-0.0921261 0 -0.0011811 278.899 0.090945 0c0,12.9083 -10.4646,23.374 -23.374,23.374l0 0.0011811 -64.3123 0c-12.9095,0 -23.3752,-10.4669 -23.3752,-23.3752l0 -276.275c-40.2851,-60.2103 -85.3028,-161.547 -102.058,-259.034 -8.35394,-48.6036 -9.83032,-96.6355 -0.525591,-138.937 9.83741,-44.7272 31.4941,-83.0587 69.2658,-109.402 21.548,-15.0272 47.9717,-25.8544 79.9926,-31.3607l-0.00590552 -0.0330709c8.25119,-1.41732 16.2343,1.67717 21.424,7.49646z"/>
  <path class="fil9" d="M1538.03 1547.08c-18.7087,10.3583 -45.0461,17.713 -82.1575,17.713l-363.307 0c-0.622441,0 -1.2378,-0.0248032 -1.84843,-0.0720473 -16.7752,0.0141732 -124.501,-2.20866 -168.062,-61.0205l-0.0318898 0.0248032 -0.387402 -0.499607 -0.0496063 0.0377953c-0.238583,-0.328347 -0.468898,-0.660237 -0.688583,-0.99567 -9.84922,-12.7984 -83.5064,-109.484 -160.76,-237.766l0.0661418 -0.0401575 -0.00472441 -0.00708662 -0.0897638 0.0543308c-0.323622,-0.538583 -0.622441,-1.08425 -0.89882,-1.63701 -5.12481,-8.02796 -28.8284,-43.0477 -52.3536,-43.0477 -0.666142,0 -1.32638,-0.0283465 -1.97835,-0.0838583 -3.95788,0.216142 -21.45,3.39213 -21.45,42.7878l-0.0921261 0 0 63.5174c-4.61339,-2.34803 -9.3756,-3.77953 -14.1284,-3.77953 -0.666142,0 -1.32638,-0.0283465 -1.97835,-0.0838583 -3.95788,0.216142 -21.45,3.39213 -21.45,42.7878l-0.0921261 0 0 199.832 -49.9477 0c-12.9095,0 -23.3752,-10.4669 -23.3752,-23.3752l0 -276.275c-40.2851,-60.2103 -85.3028,-161.547 -102.058,-259.034 -6.57756,-38.2689 -8.89016,-76.1847 -5.03386,-111.227 9.89765,-13.0654 21.8622,-24.7229 36.1252,-34.6701 21.548,-15.0272 47.9717,-25.8544 79.9926,-31.3618l-0.00590552 -0.0318898c8.25119,-1.41732 16.2343,1.67717 21.424,7.49646 16.2496,15.8693 183.412,183.405 364.24,533.745l0.0519685 -0.0259843c0.140551,0.271654 0.272835,0.54567 0.401575,0.820867 6.95079,11.9587 58.467,96.1064 131.693,95.6481l0 -0.0897638c0.544489,-0.00354331 1.08189,0.011811 1.61811,0.0448819 51.6296,-2.17677 265.015,-251.892 436.616,80.6127z"/>
 </g>
</svg>
